<svg id="Layer_1" data-name="Layer 1" xmlns="http://www.w3.org/2000/svg" viewBox="0 0 1240.37 477.99"><defs><style>.cls-1{fill:#fff;}</style></defs><title>flavia1</title><path class="cls-1" d="M20.63,178.2V382.74L63.91,408l53.2-113.5ZM123.17,301.82,71.33,412.33l64.28,37.54,44.29-79.65Zm271.45,45.64,25.79,38.41,8.23-4.89V286.26ZM284.39,201.4,191.75,368,277,470.77l58.36-34.56h0l48.31-86.94ZM122,284l-4.93,10.49,6.06,7.33,4.93-10.54ZM225.49,23.81,190.84,43.94,216.58,82.3l23.43-50ZM216.58,82.3l-5,10.67L182.07,49.05,20.63,142.87v18.86L122,284,211.56,93l5.61,8.32,5-10.67Zm.59,19L128.1,291.28l57.27,69.07,93.18-167.63Zm66.9,81.47-5.52,9.91,5.84,8.68,5.52-9.91Zm-156,108.47,57.27,69.07,93.18-167.63-61.38-91.38ZM247.48,36.7l-25.29,54,61.88,92.14,52.25-94ZM185.37,360.35l-5.47,9.87,6.37,7.69,5.48-9.87Zm203.82-21-5.47,9.9,5.43,8.1,5.47-9.91ZM344.37,93.47l-54.46,98,99.28,147.88,39.45-70.93V142.87Zm44.78,263.9L350.2,427.44,411.72,391ZM186.27,377.91l-42.61,76.62,81,47.27,43.2-25.6Z" transform="translate(-20.63 -23.81)"/><path class="cls-1" d="M604.37,189.12h-46v21h41.23V231H558.33v40H535.14V168h69.23Z" transform="translate(-20.63 -23.81)"/><path class="cls-1" d="M728.08,271H666.77V168H690v84.16h38.12Z" transform="translate(-20.63 -23.81)"/><path class="cls-1" d="M885.33,271H860.06l-7.32-22.91H816.11L808.86,271H783.73l37.48-103h27.5Zm-37.91-40.72-11.06-34.6a45.17,45.17,0,0,1-1.72-9.27h-.57a39.19,39.19,0,0,1-1.8,9l-11.2,34.89Z" transform="translate(-20.63 -23.81)"/><path class="cls-1" d="M1020.45,168,985,271H958.7l-35-103h25l21.47,71.66a51.29,51.29,0,0,1,2.08,10.27h.44a57.38,57.38,0,0,1,2.22-10.55L996.19,168Z" transform="translate(-20.63 -23.81)"/><path class="cls-1" d="M1102.4,271h-23.19V168h23.19Z" transform="translate(-20.63 -23.81)"/><path class="cls-1" d="M1261,271h-25.27l-7.33-22.91h-36.62L1184.53,271H1159.4l37.48-103h27.5Zm-37.91-40.72L1212,195.66a45.17,45.17,0,0,1-1.72-9.27h-.58a39.71,39.71,0,0,1-1.79,9l-11.2,34.89Z" transform="translate(-20.63 -23.81)"/><polygon class="cls-1" points="529.12 311.75 559.43 281.99 569.07 281.99 533.69 316.23 573.77 356.44 564.13 356.44 528.4 321.39 523.7 325.91 523.7 357.3 514.51 357.3 514.51 281.99 523.7 281.99 523.7 317.05 523.83 316.91 529.12 311.75"/><path class="cls-1" d="M660.42,379.16a18.22,18.22,0,0,1-7.59-8,28.26,28.26,0,0,1-2.61-12.67v-8.76a27.64,27.64,0,0,1,2.61-12.51,18.13,18.13,0,0,1,7.59-7.93,27.7,27.7,0,0,1,23.94,0,18,18,0,0,1,7.59,7.93,27.51,27.51,0,0,1,2.62,12.51v8.92A27.64,27.64,0,0,1,692,371.2a18.2,18.2,0,0,1-7.59,8,27.52,27.52,0,0,1-23.94,0Zm22.83-8.48q3.86-4.28,3.86-12v-8.92q0-7.71-3.86-12t-10.91-4.25q-7,0-10.83,4.25t-3.83,12v8.92q0,7.77,3.83,12T672.34,375Q679.39,375,683.25,370.68Z" transform="translate(-20.63 -23.81)"/><path class="cls-1" d="M778.5,381.9l-4.09-.85a34.59,34.59,0,0,1-7.64-2.52,27.47,27.47,0,0,1-6.3-4l4.31-5.23a39.56,39.56,0,0,0,9.11,4.59,27.61,27.61,0,0,0,9,1.63q7.71,0,11.94-2.65a8.33,8.33,0,0,0,4.22-7.46,6.57,6.57,0,0,0-2-5.28,11,11,0,0,0-5.15-2.38,74.76,74.76,0,0,0-8.65-1l-1.07-.08c-.36,0-.71,0-1.06-.08a2.82,2.82,0,0,1-.41,0,3,3,0,0,0-.42,0A49.69,49.69,0,0,1,771.3,355a12.05,12.05,0,0,1-6-3.89c-1.61-1.9-2.41-4.64-2.41-8.24a15.14,15.14,0,0,1,2.51-8.81,15.68,15.68,0,0,1,7.36-5.54,31.54,31.54,0,0,1,11.63-1.92,36.64,36.64,0,0,1,7.05.7,37.18,37.18,0,0,1,6.76,2,31.08,31.08,0,0,1,5.93,3.19l-4.3,5.13a36.38,36.38,0,0,0-8-3.44,27.32,27.32,0,0,0-7.77-1.22q-6.79,0-10.52,2.54a8.14,8.14,0,0,0-3.73,7.15,5.7,5.7,0,0,0,2,4.79,11.23,11.23,0,0,0,5.11,2.1,84.55,84.55,0,0,0,8.47.83l.44,0,.44,0h.31a1.18,1.18,0,0,1,.31.05,46.34,46.34,0,0,1,9.61,1.4,13,13,0,0,1,6.66,4.3q2.68,3.21,2.69,9.27a14.74,14.74,0,0,1-2.69,8.92,16.75,16.75,0,0,1-7.88,5.62,35.72,35.72,0,0,1-12.48,1.94Z" transform="translate(-20.63 -23.81)"/><path class="cls-1" d="M863,327.34h24.25v6.43H863Zm8.58,50.44q-3-3.6-3-10.65V311.69H876v55.55a8.14,8.14,0,0,0,1.56,5.33,5.64,5.64,0,0,0,4.61,1.87h5.08v6.94h-6.11Q874.61,381.38,871.59,377.78Z" transform="translate(-20.63 -23.81)"/><path class="cls-1" d="M954.1,305.79h7.46v7.46H954.1Zm0,21.55h7.46v53.78H954.1Z" transform="translate(-20.63 -23.81)"/></svg>